<svg width="50" height="50" viewBox="0 0 50 50" fill="none" xmlns="http://www.w3.org/2000/svg">
<rect width="50" height="50" rx="6" fill="#F3F6F9"/>
<g clip-path="url(#clip0)">
<path d="M40.3972 45.6889L40.2611 45.2383C40.1954 45.0206 39.976 44.8872 39.7504 44.9149L39.6068 43.8738L39.3094 41.7173C39.3094 41.7172 39.3094 41.7172 39.3094 41.7171L39.2749 41.4666C39.1186 40.3336 38.3925 39.3495 37.1966 38.7716L35.7953 38.0942C35.5683 37.9846 35.395 38.1257 35.2284 38.3049L32.153 37.2111C31.5704 37.0234 31.1774 36.4963 31.1774 35.9026V33.6783L34.2506 32.4404C35.8456 31.7978 36.8846 30.2912 36.8846 28.6207V22.4138C36.8846 20.5093 35.2875 17.5862 33.3174 17.5862H20.4756C18.5054 17.5862 16.9084 20.5093 16.9084 22.4138V28.6207C16.9084 30.2911 17.9474 31.7978 19.5426 32.4404L22.6159 33.6782V35.9024C22.6159 36.4961 22.2229 37.0232 21.6403 37.211L18.5649 38.3047C18.3982 38.1255 18.225 37.9843 17.998 38.0941L16.5966 38.7714C15.4007 39.3494 14.6746 40.3335 14.5184 41.4664L14.4839 41.7169C14.4839 41.717 14.4839 41.7171 14.4839 41.7172L14.1865 43.8736L14.0429 44.9147C13.8173 44.887 13.598 45.0204 13.5321 45.2381L13.3961 45.6887C13.3232 45.93 13.4665 46.1826 13.7161 46.253L13.853 46.2916L13.6647 47.6575C13.4933 48.8979 14.4914 50 15.7858 50H38.0072C39.3016 50 40.2998 48.8979 40.1287 47.6576L39.9403 46.2917L40.0772 46.2531C40.3268 46.1828 40.4701 45.9302 40.3972 45.6889Z" fill="#F6B47B"/>
<path d="M22.6159 33.5345V35.9025C22.6159 36.3933 22.3469 36.838 21.9246 37.0836C27.6102 38.0332 30.8598 33.911 31.155 33.5345H22.6159Z" fill="#E2A071"/>
<path d="M34.2505 32.4404L29.6404 34.2972C28.7709 34.6473 27.8384 34.8277 26.8965 34.8277C25.9546 34.8277 25.0219 34.6473 24.1524 34.2972L19.5426 32.4404C17.9475 31.7978 16.9085 30.2912 16.9085 28.6207V22.4138C16.9085 20.5094 18.5056 17.5862 20.4756 17.5862H33.3175C35.2876 17.5862 36.8847 20.5094 36.8847 22.4138V28.6207C36.8847 30.2912 35.8456 31.7979 34.2505 32.4404Z" fill="#FDC88E"/>
<path d="M21.9025 26.5517C21.5101 26.5517 21.1891 26.2414 21.1891 25.8621V25.1724C21.1891 24.7931 21.5101 24.4828 21.9025 24.4828C22.2949 24.4828 22.6159 24.7931 22.6159 25.1724V25.8621C22.6159 26.2414 22.2949 26.5517 21.9025 26.5517Z" fill="#623F33"/>
<path d="M31.8906 26.5517C31.4982 26.5517 31.1772 26.2414 31.1772 25.8621V25.1724C31.1772 24.7931 31.4982 24.4828 31.8906 24.4828C32.283 24.4828 32.6041 24.7931 32.6041 25.1724V25.8621C32.6041 26.2414 32.283 26.5517 31.8906 26.5517Z" fill="#623F33"/>
<path d="M26.8966 31.3981C25.6282 31.3981 24.4417 31.0964 23.6415 30.5701C23.3158 30.356 23.2311 29.9269 23.4531 29.6121C23.6742 29.2976 24.1185 29.2157 24.4441 29.4299C25.005 29.7986 25.9218 30.0189 26.8966 30.0189C27.8713 30.0189 28.7882 29.7986 29.349 29.4299C29.6754 29.2151 30.1185 29.2973 30.3401 29.6121C30.5619 29.9269 30.4773 30.356 30.1516 30.5701C29.3515 31.0964 28.165 31.3981 26.8966 31.3981Z" fill="#E2A071"/>
<path d="M16.9085 23.2018V28.6208C16.9085 30.2912 17.9475 31.798 19.5426 32.4405L24.1523 34.2972C24.378 34.3881 24.6082 34.4663 24.8414 34.5342C22.8042 33.0936 21.4481 31.8342 20.6536 31.0107C20.0755 30.4116 19.7622 29.621 19.7622 28.8017V24.9473C21.8044 24.2582 27.0879 21.995 27.1612 18.2761C27.1681 17.9246 27.1626 17.6112 27.1465 17.3318C23.7888 21.7685 19.1371 22.9319 16.9085 23.2018Z" fill="#F6B47B"/>
<path d="M39.2479 32.939C39.2479 31.4777 38.0016 30.8602 38.0016 29.6158C38.0016 28.3714 39.621 28.0366 39.621 26.1711C39.621 24.9241 39.0461 23.9559 38.6648 23.0636C40.8389 13.9546 32.6832 10 30.4637 10C28.1451 10 26.8966 10.6897 26.8966 10.6897C26.8966 10.6897 25.648 10 23.3294 10C21.1099 10 12.9542 13.9546 15.1283 23.0635C14.747 23.9558 14.1721 24.924 14.1721 26.171C14.1721 28.0366 15.7915 28.3713 15.7915 29.6157C15.7915 30.8601 14.5452 31.4777 14.5452 32.9389C14.5452 34.4002 15.7455 35.1078 16.1355 36.2072C16.3139 36.71 16.1058 38.2184 16.1058 38.2184C16.1058 38.2184 17.3766 36.1915 16.7078 34.3295C16.0389 32.4675 16.8148 32.2672 17.4212 31.4541C18.3353 30.2284 18.2114 28.8534 17.4648 27.517C16.9827 26.6539 17.1096 25.8202 17.7853 25.2397C18.4966 24.6289 18.6633 23.5747 18.6643 23.5679C22.0419 22.6121 26.8966 20.6972 26.8966 17.5862C26.8966 20.6972 31.7512 22.6121 35.1287 23.5679C35.1298 23.5746 35.2965 24.6289 36.0077 25.2397C36.6834 25.8202 36.8103 26.6539 36.3282 27.517C35.5817 28.8534 35.4577 30.2285 36.3718 31.4541C36.9782 32.2672 37.7541 32.4675 37.0852 34.3295C36.4164 36.1914 37.6872 38.2184 37.6872 38.2184C37.6872 38.2184 37.4791 36.7099 37.6575 36.2072C38.0476 35.1078 39.2479 34.4002 39.2479 32.939Z" fill="#6E4439"/>
<path d="M39.2748 41.4667C39.1186 40.3337 38.3924 39.3496 37.1966 38.7717L35.7952 38.0943C35.5361 37.9692 35.3471 38.1707 35.1579 38.3827C31.3557 42.644 26.8968 44.4833 26.8968 44.4833H26.8967H26.8966C26.8966 44.4833 22.4377 42.644 18.6355 38.3827C18.4463 38.1707 18.2572 37.9692 17.9982 38.0943L16.5968 38.7717C15.4009 39.3497 14.6748 40.3338 14.5186 41.4667L13.9378 45.6767C15.8224 46.304 19.0487 47.2416 19.0487 47.2416V50.0002H34.7443V47.2416C34.7443 47.2416 37.9706 46.304 39.8555 45.6767L39.2748 41.4667Z" fill="#57B9DD"/>
<path d="M19.031 47.0307C18.9874 46.2106 18.7042 45.4182 18.1926 44.7587L14.8433 40.4418C14.6816 40.7637 14.568 41.1063 14.5182 41.4665L13.9527 45.5666L19.031 47.0307Z" fill="#43A0C5"/>
<path d="M13.3958 45.689C13.323 45.9303 13.4663 46.183 13.7158 46.2533L19.0488 47.7571V47.2415C19.0488 46.9157 18.9958 46.5966 18.9185 46.2835L14.1156 44.9292C13.8661 44.8588 13.6048 44.9973 13.532 45.2385L13.3958 45.689Z" fill="#258CAC"/>
<path d="M34.762 47.0307C34.8056 46.2106 35.0889 45.4182 35.6005 44.7587L38.9498 40.4418C39.1115 40.7637 39.2251 41.1063 39.2749 41.4665L39.8404 45.5666L34.762 47.0307Z" fill="#43A0C5"/>
<path d="M40.3973 45.689C40.4702 45.9303 40.3268 46.183 40.0773 46.2533L34.7444 47.7571V47.2415C34.7444 46.9157 34.7973 46.5966 34.8747 46.2835L39.6775 44.9292C39.927 44.8588 40.1883 44.9973 40.2611 45.2385L40.3973 45.689Z" fill="#258CAC"/>
<path d="M23.3294 10C21.1099 10 12.9543 13.9546 15.1283 23.0635C14.747 23.9558 14.1721 24.924 14.1721 26.171C14.1721 28.0366 15.7915 28.3713 15.7915 29.6157C15.7915 30.8601 14.5452 31.4777 14.5452 32.9389C14.5452 34.4002 15.7455 35.1078 16.1355 36.2072C16.3139 36.71 16.1058 38.2184 16.1058 38.2184C16.1058 38.2184 17.3766 36.1915 16.7078 34.3295C16.0389 32.4675 16.8148 32.2672 17.4212 31.4541C18.3353 30.2284 18.2114 28.8534 17.4648 27.517C16.9827 26.6539 17.1096 25.8202 17.7853 25.2397C18.4965 24.6289 18.6633 23.5747 18.6643 23.5679L18.6636 23.5678C18.6638 23.5678 18.664 23.5677 18.6643 23.5677C16.6488 14.6007 24.6842 10.6968 26.8965 10.69V10.6897C26.8965 10.6897 25.648 10 23.3294 10Z" fill="#5E342E"/>
</g>
<defs>
<clipPath id="clip0">
<rect width="41.3793" height="40" fill="white" transform="translate(6.20691 10)"/>
</clipPath>
</defs>
</svg>
