<svg width="52" height="50" viewBox="0 0 52 50" fill="none" xmlns="http://www.w3.org/2000/svg">
<rect x="0.0344849" width="51.7241" height="50" rx="6" fill="#F3F6F9"/>
<g clip-path="url(#clip0)">
<path d="M40.153 46.4549L40.0883 45.8915C40.0627 45.6686 39.855 45.5079 39.6245 45.5327L39.5882 45.5366L38.9615 40.6905C38.8252 39.6364 38.0748 38.7516 37.0322 38.4156L33.55 37.2936C33.0718 37.1394 32.5473 37.2375 32.1785 37.5413L31.1528 37.2108C30.5701 37.023 30.1772 36.496 30.1772 35.9023V33.678L33.2504 32.4401C34.8456 31.7978 35.8846 30.2912 35.8846 28.6207V27.931C37.0667 27.931 38.025 27.0047 38.025 25.862C38.025 25.517 37.9371 25.1919 37.7825 24.9058C37.938 24.5653 38.025 24.1891 38.025 23.7931C38.025 23.5138 37.9692 23.2496 37.8894 22.9956C38.413 22.4955 38.7384 21.8021 38.7384 21.0345C38.7384 20.7551 38.6827 20.491 38.6028 20.237C39.1265 19.7369 39.4518 19.0435 39.4518 18.2758C39.4518 16.949 38.4822 15.8426 37.1909 15.5785C37.2617 15.3383 37.3115 15.0897 37.3115 14.8276C37.3115 13.304 36.0338 12.069 34.4578 12.069C33.8659 12.069 33.3162 12.2433 32.8603 12.5415C32.4709 11.4659 31.4228 10.6897 30.1772 10.6897C29.4735 10.6897 28.8376 10.9453 28.34 11.3534C27.8423 10.5463 26.9393 10 25.8967 10C24.854 10 23.9511 10.5463 23.4532 11.3534C22.9556 10.9453 22.3198 10.6897 21.616 10.6897C20.3704 10.6897 19.3223 11.4659 18.9329 12.5415C18.4769 12.2433 17.9272 12.069 17.3354 12.069C15.7594 12.069 14.4817 13.304 14.4817 14.8276C14.4817 15.0897 14.5316 15.3383 14.6023 15.5785C13.3109 15.8426 12.3413 16.949 12.3413 18.2758C12.3413 19.0435 12.6667 19.7369 13.1903 20.237C13.1105 20.491 13.0547 20.7551 13.0547 21.0345C13.0547 21.8021 13.3802 22.4955 13.9037 22.9956C13.8239 23.2496 13.7682 23.5138 13.7682 23.7931C13.7682 24.1891 13.8551 24.5653 14.0106 24.9058C13.8561 25.1919 13.7682 25.517 13.7682 25.862C13.7682 27.0047 14.7264 27.931 15.9085 27.931V28.6207C15.9085 30.2911 16.9475 31.7977 18.5427 32.4403L21.616 33.6781V35.9024C21.616 36.4961 21.2229 37.0231 20.6403 37.2109L19.6146 37.5414C19.2458 37.2376 18.7213 37.1395 18.2431 37.2936L14.7609 38.4157C13.7183 38.7517 12.968 39.6365 12.8316 40.6906L12.2049 45.5367L12.1686 45.5328C11.9381 45.508 11.7304 45.6686 11.7048 45.8916L11.6401 46.455C11.6145 46.6779 11.7806 46.8786 12.0112 46.9034L13.0547 47.0154V48.6206C13.0547 49.3823 13.6936 49.9999 14.4816 49.9999H18.0488H33.7443H37.3115C38.0996 49.9999 38.7384 49.3823 38.7384 48.6206V47.0154L39.782 46.9033C40.0125 46.8785 40.1787 46.6778 40.153 46.4549Z" fill="#C38762"/>
<path d="M38.6029 20.237C39.1265 19.7369 39.4518 19.0435 39.4518 18.2758C39.4518 16.949 38.4822 15.8426 37.1909 15.5785C37.2616 15.3383 37.3115 15.0897 37.3115 14.8276C37.3115 13.304 36.0338 12.069 34.4578 12.069C33.8659 12.069 33.3162 12.2433 32.8603 12.5415C32.4708 11.4659 31.4228 10.6897 30.1771 10.6897C29.4734 10.6897 28.8376 10.9453 28.34 11.3534C27.8423 10.5463 26.9393 10 25.8966 10C24.8539 10 23.9511 10.5463 23.4532 11.3534C22.9556 10.9453 22.3197 10.6897 21.616 10.6897C20.3704 10.6897 19.3223 11.4659 18.9329 12.5415C18.4769 12.2433 17.9272 12.069 17.3354 12.069C15.7593 12.069 14.4817 13.304 14.4817 14.8276C14.4817 15.0897 14.5316 15.3383 14.6022 15.5785C13.3109 15.8426 12.3413 16.949 12.3413 18.2758C12.3413 19.0435 12.6667 19.7369 13.1903 20.237C13.1104 20.491 13.0547 20.7551 13.0547 21.0345C13.0547 21.8021 13.3801 22.4955 13.9037 22.9956C13.8239 23.2496 13.7681 23.5138 13.7681 23.7931C13.7681 25.3166 15.0458 26.5517 16.6219 26.5517C16.6222 26.5517 16.6224 26.5517 16.6228 26.5517H35.1704C35.1707 26.5517 35.1709 26.5517 35.1713 26.5517C36.7473 26.5517 38.025 25.3166 38.025 23.7931C38.025 23.5138 37.9693 23.2496 37.8895 22.9956C38.413 22.4955 38.7385 21.8021 38.7385 21.0345C38.7384 20.7551 38.6827 20.491 38.6029 20.237Z" fill="#623F33"/>
<path d="M33.7443 50.0002V46.5519H39.7193L38.9614 40.6908C38.825 39.6366 38.0747 38.7518 37.0321 38.4159L33.5499 37.2938C32.9435 37.0984 32.2612 37.3071 31.9187 37.8288C30.6541 39.755 28.4313 41.0346 25.8966 41.0346C23.3619 41.0346 21.139 39.7549 19.8743 37.8287C19.5318 37.307 18.8496 37.0983 18.2431 37.2937L14.7609 38.4158C13.7184 38.7517 12.968 39.6365 12.8316 40.6907L12.1531 45.9383L18.0488 46.5518V50.0001H33.7444V50.0002H33.7443Z" fill="#FFD739"/>
<path d="M30.1772 33.6781L21.616 31.839V35.9024C21.616 36.3988 21.3319 36.8361 20.9011 37.0799C26.8845 38.0923 30.1772 33.6781 30.1772 33.6781Z" fill="#A46D4D"/>
<path d="M35.8846 23.7931V21.7241C35.8846 19.8197 34.2875 17.5862 32.3174 17.5862H19.4756C17.5055 17.5862 15.9084 19.8197 15.9084 21.7241V23.7931C14.7264 23.7931 13.7681 24.7194 13.7681 25.862C13.7681 27.0047 14.7264 27.931 15.9084 27.931V28.6206C15.9084 30.2911 16.9475 31.7977 18.5426 32.4403L23.1524 34.297C24.022 34.6473 24.9546 34.8275 25.8965 34.8275C26.8384 34.8275 27.771 34.6472 28.6405 34.297L33.2505 32.4402C34.8456 31.7978 35.8846 30.2912 35.8846 28.6206V27.931C37.0667 27.931 38.0249 27.0047 38.0249 25.862C38.0249 24.7194 37.0667 23.7931 35.8846 23.7931Z" fill="#D29771"/>
<path d="M20.9026 26.5517C20.5102 26.5517 20.1892 26.2413 20.1892 25.862V25.1724C20.1892 24.7931 20.5102 24.4827 20.9026 24.4827C21.295 24.4827 21.616 24.7931 21.616 25.1724V25.862C21.616 26.2413 21.2949 26.5517 20.9026 26.5517Z" fill="#623F33"/>
<path d="M30.8906 26.5517C30.4982 26.5517 30.1771 26.2413 30.1771 25.862V25.1724C30.1771 24.7931 30.4982 24.4827 30.8906 24.4827C31.283 24.4827 31.604 24.7931 31.604 25.1724V25.862C31.604 26.2413 31.283 26.5517 30.8906 26.5517Z" fill="#623F33"/>
<path d="M25.8966 31.3981C24.6282 31.3981 23.4418 31.0964 22.6416 30.5701C22.3159 30.3559 22.2313 29.9269 22.4531 29.6121C22.6743 29.2976 23.1185 29.2157 23.4442 29.4299C24.005 29.7986 24.9219 30.0189 25.8966 30.0189C26.8713 30.0189 27.7882 29.7986 28.349 29.4299C28.6754 29.2151 29.1186 29.2972 29.3401 29.6121C29.562 29.9269 29.4773 30.3559 29.1517 30.5701C28.3515 31.0964 27.165 31.3981 25.8966 31.3981Z" fill="#A46D4D"/>
<path d="M18.0489 47.0724V45.5115C18.0489 44.848 17.8015 44.2068 17.3521 43.7052L13.4266 39.3248C13.1098 39.7125 12.8977 40.1808 12.8318 40.6906L12.0866 46.4532C13.2213 46.5191 16.2395 46.8609 18.0489 47.0724Z" fill="#FFC33D"/>
<path d="M18.0489 46.1643L12.1687 45.5327C11.9381 45.508 11.7305 45.6686 11.7048 45.8914L11.6401 46.4549C11.6145 46.6777 11.7806 46.8785 12.0112 46.9033L18.0489 47.5518V46.1643Z" fill="#FFB440"/>
<path d="M33.7443 47.0724V45.5115C33.7443 44.848 33.9917 44.2068 34.4411 43.7052L38.3667 39.3248C38.6834 39.7125 38.8955 40.1808 38.9614 40.6906L39.7066 46.4532C38.5719 46.5191 35.5537 46.8609 33.7443 47.0724Z" fill="#FFC33D"/>
<path d="M33.7443 46.1643L39.6244 45.5327C39.8551 45.508 40.0627 45.6686 40.0883 45.8914L40.1531 46.4549C40.1787 46.6777 40.0125 46.8785 39.782 46.9033L33.7443 47.5518V46.1643Z" fill="#FFB440"/>
<path d="M15.9084 17.6724V23.7931C14.7264 23.7931 13.7681 24.7194 13.7681 25.862C13.7681 27.0047 14.7264 27.931 15.9084 27.931V28.6206C15.9084 30.2912 16.9475 31.7978 18.5426 32.4403L23.1523 34.297C23.3779 34.3879 23.6082 34.4662 23.8414 34.534C21.8042 33.0934 20.4481 31.834 19.6535 31.0106C19.0755 30.4114 18.7622 29.6208 18.7622 28.8015V21.0149C19.5215 20.9331 20.1994 20.5939 20.7048 20.0914C21.0939 20.2534 21.522 20.3448 21.9726 20.3448C22.9533 20.3448 23.8203 19.9107 24.4092 19.2408C24.8434 19.4989 25.3495 19.6551 25.8965 19.6551C26.6291 19.6551 27.2903 19.3805 27.7957 18.9419C28.3496 19.3808 29.0484 19.6551 29.8204 19.6551C31.1834 19.6551 32.3395 18.8314 32.803 17.6724H15.9084Z" fill="#C38762"/>
<path d="M35.8846 18.2758C35.8382 18.2758 35.795 18.2862 35.7493 18.289C35.8321 18.0687 35.8846 17.8341 35.8846 17.5862C35.8846 16.4435 34.9264 15.5172 33.7443 15.5172C33.4847 15.5172 33.239 15.5687 33.0088 15.6505C32.8943 14.0371 31.5186 12.7586 29.8204 12.7586C28.3585 12.7586 27.1387 13.709 26.7508 15.0013C26.4888 14.8907 26.2006 14.8276 25.8965 14.8276C25.0958 14.8276 24.4062 15.2577 24.0391 15.8871C23.5899 15.2478 22.8323 14.8276 21.9727 14.8276C20.9511 14.8276 20.0756 15.4222 19.6889 16.2715C19.2964 15.8145 18.7113 15.5172 18.0488 15.5172C17.2536 15.5172 16.5602 15.9367 16.1912 16.559C16.1422 16.5542 16.0925 16.5517 16.0422 16.5517C15.2295 16.5517 14.5707 17.1885 14.5707 17.9741C14.5707 18.2058 14.6292 18.4239 14.731 18.6173C14.1511 18.9874 13.7681 19.6227 13.7681 20.3448C13.7681 21.4875 14.7264 22.4138 15.9084 22.4138C17.0905 22.4138 18.0487 21.4875 18.0487 20.3448C18.0487 20.0969 17.9962 19.8623 17.9135 19.642C17.9591 19.6448 18.0025 19.6552 18.0487 19.6552C18.8495 19.6552 19.5392 19.2251 19.9062 18.5957C20.3554 19.2349 21.1131 19.6552 21.9726 19.6552C22.9943 19.6552 23.8697 19.0605 24.2564 18.2112C24.649 18.6683 25.2338 18.9655 25.8965 18.9655C26.6067 18.9655 27.2313 18.6274 27.6206 18.1127C28.1958 18.638 28.9667 18.9655 29.8204 18.9655C30.5487 18.9655 31.2128 18.722 31.7515 18.327C32.0603 19.1025 32.8332 19.6552 33.7443 19.6552C33.7907 19.6552 33.8339 19.6448 33.8796 19.642C33.7968 19.8623 33.7443 20.0969 33.7443 20.3448C33.7443 21.4875 34.7025 22.4138 35.8846 22.4138C37.0667 22.4138 38.0249 21.4875 38.0249 20.3448C38.0249 19.2021 37.0667 18.2758 35.8846 18.2758Z" fill="#623F33"/>
</g>
<defs>
<clipPath id="clip0">
<rect width="41.3793" height="40" fill="white" transform="translate(5.20691 10)"/>
</clipPath>
</defs>
</svg>
