<svg width="52" height="50" viewBox="0 0 52 50" fill="none" xmlns="http://www.w3.org/2000/svg">
<rect x="0.0344849" width="51.7241" height="50" rx="6" fill="#F3F6F9"/>
<path d="M43.0191 23.7931C43.0191 23.7931 40.0761 24.1379 38.7384 19.6552C36.8928 13.47 32.7919 10 25.8966 10C19.0013 10 14.9004 13.47 13.0547 19.6552C11.717 24.1379 8.7741 23.7931 8.7741 23.7931C8.7741 23.7931 7.16887 27.2414 10.9144 29.3103H9.48754C9.48754 29.3103 10.3549 33.4977 14.7226 34.0669C15.2778 35.2794 17.0144 36.8966 22.3294 36.8966H25.8966H29.4638C34.7788 36.8966 36.5154 35.2793 37.0705 34.0669C41.4383 33.4977 42.3056 29.3103 42.3056 29.3103H40.8787C44.6243 27.2414 43.0191 23.7931 43.0191 23.7931Z" fill="#9D6E48"/>
<path d="M33.0309 23.7931C24.2022 19.4828 24.7372 11.8966 25.8966 10C19.0014 10 14.9004 13.47 13.0547 19.6552C11.717 24.1379 8.7741 23.7931 8.7741 23.7931C8.7741 23.7931 7.16887 27.2414 10.9144 29.3103H9.48754C9.48754 29.3103 10.3549 33.4977 14.7226 34.0669C15.2778 35.2794 17.0144 36.8966 22.3294 36.8966L33.0309 23.7931Z" fill="#8D5F3D"/>
<path d="M39.1287 47.6577L38.3093 41.7173C38.1344 40.4491 37.2474 39.3787 36.0052 38.9369L31.1528 37.211C30.5702 37.0233 30.1771 36.4962 30.1771 35.9025V33.6782L33.2504 32.4403C34.8456 31.7978 35.8846 30.2912 35.8846 28.6207V27.931C37.0667 27.931 38.0249 27.0047 38.0249 25.8621C38.0249 24.7194 37.0667 23.7931 35.8846 23.7931V22.4138C35.8846 20.5093 34.2875 18.9655 32.3174 18.9655H19.4756C17.5054 18.9655 15.9084 20.5094 15.9084 22.4138V23.7931C14.7263 23.7931 13.7681 24.7194 13.7681 25.8621C13.7681 27.0047 14.7263 27.931 15.9084 27.931V28.6207C15.9084 30.2912 16.9474 31.7978 18.5426 32.4403L21.6159 33.6782V35.9024C21.6159 36.4961 21.2229 37.0232 20.6403 37.2109L15.7878 38.9368C14.5457 39.3786 13.6587 40.449 13.4837 41.7172L12.6643 47.6576C12.4933 48.8979 13.4914 50 14.7858 50H25.8965H37.0072C38.3017 50 39.2999 48.8979 39.1287 47.6577Z" fill="#F6B47B"/>
<path d="M21.616 33.7069V35.9024C21.616 36.3932 21.3469 36.8379 20.9247 37.0835C26.6101 38.0331 29.8598 34.0834 30.1551 33.7068H21.616V33.7069Z" fill="#E2A071"/>
<path d="M35.8847 23.7931V22.4138C35.8847 20.5093 34.2875 18.9655 32.3175 18.9655H19.4756C17.5055 18.9655 15.9084 20.5094 15.9084 22.4138V23.7931C14.7264 23.7931 13.7681 24.7194 13.7681 25.8621C13.7681 27.0047 14.7264 27.931 15.9084 27.931V28.6207C15.9084 30.2912 16.9475 31.7978 18.5426 32.4403L23.1524 34.2971C24.0219 34.6473 24.9545 34.8276 25.8965 34.8276C26.8384 34.8276 27.7709 34.6473 28.6404 34.2971L33.2505 32.4403C34.8456 31.7978 35.8847 30.2912 35.8847 28.6207V27.931C37.0667 27.931 38.025 27.0047 38.025 25.8621C38.025 24.7194 37.0667 23.7931 35.8847 23.7931Z" fill="#FDC88E"/>
<path d="M20.9025 26.5517C20.5101 26.5517 20.1891 26.2414 20.1891 25.8621V25.1724C20.1891 24.7931 20.5101 24.4828 20.9025 24.4828C21.2949 24.4828 21.6159 24.7931 21.6159 25.1724V25.8621C21.6159 26.2414 21.2949 26.5517 20.9025 26.5517Z" fill="#623F33"/>
<path d="M25.8966 31.3981C24.6282 31.3981 23.4417 31.0964 22.6415 30.5701C22.3158 30.356 22.2311 29.9269 22.4531 29.6121C22.6742 29.2976 23.1184 29.2157 23.4441 29.4299C24.005 29.7986 24.9218 30.0189 25.8966 30.0189C26.8713 30.0189 27.7881 29.7986 28.349 29.4299C28.6754 29.2151 29.1185 29.2973 29.34 29.6121C29.5619 29.9269 29.4773 30.356 29.1516 30.5701C28.3515 31.0964 27.165 31.3981 25.8966 31.3981Z" fill="#E2A071"/>
<path d="M34.0865 38.1604L31.5193 42.1309C31.1282 42.7358 30.4423 43.1033 29.7043 43.1033H22.0887C21.3508 43.1033 20.6649 42.7358 20.2738 42.1309L17.7066 38.1604C17.5004 37.8415 17.0681 37.7411 16.7346 37.9345L14.3911 39.2937C14.0489 39.4922 13.9416 39.9235 14.1532 40.2506L17.3353 45.1723H34.4578L37.6399 40.2505C37.8514 39.9234 37.7441 39.4922 37.4019 39.2937L35.0585 37.9344C34.725 37.7411 34.2926 37.8416 34.0865 38.1604Z" fill="#F23F44"/>
<path d="M34.4578 45.1724H17.3353V50H34.4578V45.1724Z" fill="#FF4F4F"/>
<path d="M19.6536 31.0106C19.0756 30.4115 18.7623 29.6209 18.7623 28.8016V21.4859C21.2408 23.165 24.6695 24.4781 31.069 24.8276L30.4448 22.7586C30.4448 22.7586 26.0073 20.3471 23.8454 18.9655H19.4756C19.2311 18.9655 18.9928 18.9903 18.7622 19.0357V19.035C18.7072 19.0458 18.6529 19.058 18.599 19.0712C18.594 19.0724 18.5888 19.0733 18.5838 19.0745C18.5826 19.0748 18.5815 19.0758 18.5802 19.0761C17.0437 19.4603 15.9084 20.8084 15.9084 22.4138V23.7931C14.7264 23.7931 13.7681 24.7194 13.7681 25.8621C13.7681 27.0047 14.7264 27.931 15.9084 27.931V28.6207C15.9084 30.2912 16.9475 31.7978 18.5426 32.4403L23.1523 34.2971C23.3779 34.3879 23.6082 34.4662 23.8414 34.5341C21.8042 33.0934 20.4481 31.8341 19.6536 31.0106Z" fill="#F6B47B"/>
<path d="M30.8906 26.5517C30.4982 26.5517 30.1772 26.2414 30.1772 25.8621V25.1724C30.1772 24.7931 30.4982 24.4828 30.8906 24.4828C31.283 24.4828 31.604 24.7931 31.604 25.1724V25.8621C31.604 26.2414 31.283 26.5517 30.8906 26.5517Z" fill="#623F33"/>
<path d="M33.0309 23.7931L32.3175 22.4138C32.3175 22.4138 34.5749 23.7905 35.9739 23.7905V18.6207H19.1326C21.8283 21.1156 25.1892 23.7931 33.0309 23.7931Z" fill="#9D6E48"/>
<path d="M33.0309 23.7931C30.0333 22.3297 28.1161 20.4885 26.9353 18.6207H19.1325C21.8283 21.1156 25.1892 23.7931 33.0309 23.7931Z" fill="#8D5F3D"/>
</svg>
